<svg width="653" height="624" viewBox="0 0 653 624" fill="none" xmlns="http://www.w3.org/2000/svg">
<path opacity="0.3" d="M352.904 593.056L49.2607 417.642C44.9258 415.08 45.3198 410.547 50.443 407.591L245.318 295.05C250.441 292.094 258.126 291.699 262.658 294.262L566.301 469.675C570.636 472.238 570.242 476.771 565.119 479.727L370.243 592.268C365.12 595.224 357.239 595.618 352.904 593.056Z" fill="#000028"/>
<path d="M359.8 624C356.451 624 353.101 623.212 350.539 621.832L4.1379 421.781C1.57634 420.205 0 418.037 0 415.672C0 412.912 1.97043 410.153 5.5172 408.182L241.772 269.822C248.077 266.274 257.338 265.88 262.855 269.034L609.257 469.084C611.818 470.661 613.394 472.829 613.394 475.194C613.394 477.953 611.424 480.713 607.877 482.684L371.623 621.044C368.273 623.015 363.938 624 359.8 624ZM253.594 269.231C250.047 269.231 246.107 270.216 243.151 271.793L6.69946 410.35C3.94086 411.927 2.56156 413.898 2.56156 415.672C2.56156 417.445 4.1379 418.825 5.32016 419.416L351.919 619.467C356.648 622.226 364.923 621.832 370.441 618.678L606.695 480.318C609.454 478.742 610.833 476.771 610.833 474.997C610.833 473.223 609.257 471.843 608.074 471.252L261.476 271.202C259.308 269.822 256.55 269.231 253.594 269.231Z" fill="url(#paint0_linear)"/>
<path d="M646.892 175.808L344.431 1.18257C342.263 3.01749e-06 340.096 -0.197091 338.323 0.394191L332.805 2.36513L334.776 2.75932C333.988 3.74479 333.396 4.92736 333.002 6.30701L264.629 228.432C262.855 233.951 265.417 240.652 270.146 243.411L572.409 417.84C573.198 418.234 573.986 418.628 574.577 418.825L573.789 420.402L579.109 418.431C581.276 417.642 583.05 415.672 584.035 412.715L652.409 190.59C654.182 185.268 651.621 178.567 646.892 175.808Z" fill="url(#paint1_radial)"/>
<path d="M561.572 426.315L262.855 253.857C258.52 251.295 250.836 251.689 245.712 254.646L52.6104 366.201L46.108 363.836L47.8814 372.902C48.0785 374.282 49.0637 375.464 50.8371 376.45L352.313 550.484C356.648 553.046 364.332 552.652 369.455 549.695L562.952 437.943C565.316 436.563 566.695 434.79 567.089 433.213L568.863 424.344L561.572 426.315Z" fill="url(#paint2_radial)"/>
<path d="M352.904 542.403L49.2607 366.989C44.9258 364.427 45.3198 359.894 50.443 356.937L245.318 244.397C250.441 241.44 258.126 241.046 262.658 243.608L566.301 419.022C570.636 421.584 570.242 426.118 565.119 429.074L370.243 541.615C365.12 544.571 357.239 544.965 352.904 542.403Z" fill="url(#paint3_radial)"/>
<path d="M565.119 426.709L370.244 539.25C365.12 542.206 357.436 542.6 352.904 540.038L49.2607 364.624C47.6844 363.836 46.8962 362.653 46.5021 361.471C45.911 363.442 46.6992 365.61 49.2607 366.989L352.904 542.403C357.239 544.965 365.12 544.571 370.244 541.615L565.119 429.074C568.469 427.103 569.848 424.541 569.06 422.176C568.666 423.949 567.286 425.526 565.119 426.709Z" fill="white"/>
<g opacity="0.4">
<path opacity="0.4" d="M194.087 338.608L183.841 332.695C183.053 332.301 183.053 331.315 184.038 330.921L196.058 324.023C197.043 323.431 198.422 323.431 199.21 323.826L209.457 329.738C210.245 330.133 210.245 331.118 209.26 331.512L197.24 338.411C196.255 339.002 194.875 339.002 194.087 338.608Z" fill="#06033E"/>
<path opacity="0.4" d="M209.851 347.674L199.604 341.761C198.816 341.367 198.816 340.382 199.801 339.987L211.821 333.089C212.806 332.498 214.186 332.498 214.974 332.892L225.22 338.805C226.008 339.199 226.008 340.184 225.023 340.579L213.003 347.477C212.215 348.068 210.639 348.265 209.851 347.674Z" fill="#06033E"/>
<path opacity="0.4" d="M225.811 356.74L215.565 350.828C214.777 350.433 214.777 349.448 215.762 349.054L227.782 342.155C228.767 341.564 230.146 341.564 230.934 341.958L241.18 347.871C241.969 348.265 241.969 349.251 240.983 349.645L228.964 356.543C227.979 357.332 226.599 357.332 225.811 356.74Z" fill="#06033E"/>
<path opacity="0.4" d="M247.683 349.251L237.437 343.338C236.648 342.944 236.648 341.958 237.634 341.564L247.88 335.651C248.865 335.06 250.244 335.06 251.033 335.454L261.279 341.367C262.067 341.761 262.067 342.747 261.082 343.141L250.836 349.054C249.85 349.645 248.471 349.842 247.683 349.251Z" fill="#06033E"/>
<path opacity="0.4" d="M263.446 358.514L253.2 352.601C252.412 352.207 252.412 351.222 253.397 350.828L263.643 344.915C264.629 344.323 266.008 344.323 266.796 344.718L277.042 350.63C277.83 351.025 277.83 352.01 276.845 352.404L266.599 358.317C265.614 358.908 264.234 358.908 263.446 358.514Z" fill="#06033E"/>
<path opacity="0.4" d="M279.21 367.581L268.964 361.668C268.175 361.274 268.175 360.288 269.161 359.894L279.407 353.981C280.392 353.39 281.771 353.39 282.559 353.784L292.806 359.697C293.594 360.091 293.594 361.076 292.609 361.471L282.362 367.383C281.574 367.975 280.195 367.975 279.21 367.581Z" fill="#06033E"/>
<path opacity="0.4" d="M295.17 376.647L284.924 370.734C284.136 370.34 284.136 369.354 285.121 368.96L295.367 363.047C296.352 362.456 297.732 362.456 298.52 362.85L308.766 368.763C309.554 369.157 309.554 370.143 308.569 370.537L298.323 376.45C297.338 377.041 295.958 377.238 295.17 376.647Z" fill="#06033E"/>
<path opacity="0.4" d="M310.934 385.91L300.687 379.997C299.899 379.603 299.899 378.618 300.884 378.224L311.131 372.311C312.116 371.72 313.495 371.72 314.283 372.114L324.53 378.027C325.318 378.421 325.318 379.406 324.333 379.8L314.086 385.713C313.298 386.304 311.722 386.304 310.934 385.91Z" fill="#06033E"/>
<path opacity="0.4" d="M326.697 394.977L316.451 389.064C315.663 388.67 315.663 387.684 316.648 387.29L326.894 381.377C327.879 380.786 329.259 380.786 330.047 381.18L340.293 387.093C341.081 387.487 341.081 388.473 340.096 388.867L329.85 394.78C329.062 395.371 327.682 395.568 326.697 394.977Z" fill="#06033E"/>
<path opacity="0.4" d="M342.657 404.24L332.411 398.327C331.623 397.933 331.623 396.948 332.608 396.553L342.855 390.641C343.84 390.049 345.219 390.049 346.007 390.443L356.253 396.356C357.042 396.751 357.042 397.736 356.056 398.13L345.81 404.043C344.825 404.634 343.446 404.634 342.657 404.24Z" fill="#06033E"/>
<path opacity="0.4" d="M358.421 413.306L348.175 407.394C347.387 406.999 347.387 406.014 348.372 405.62L358.618 399.707C359.603 399.116 360.983 399.116 361.771 399.51L372.017 405.423C372.805 405.817 372.805 406.802 371.82 407.196L361.574 413.109C360.785 413.701 359.209 413.701 358.421 413.306Z" fill="#06033E"/>
<path opacity="0.4" d="M374.184 422.373L363.938 416.46C363.15 416.066 363.15 415.08 364.135 414.686L374.381 408.773C375.367 408.182 376.746 408.182 377.534 408.576L387.78 414.489C388.569 414.883 388.569 415.869 387.583 416.263L377.337 422.176C376.549 422.767 375.17 422.964 374.184 422.373Z" fill="#06033E"/>
<path opacity="0.4" d="M390.145 431.636L379.899 425.723C379.11 425.329 379.11 424.344 380.096 423.949L390.342 418.037C391.327 417.445 392.706 417.445 393.495 417.84L403.741 423.752C404.529 424.147 404.529 425.132 403.544 425.526L393.298 431.439C392.312 432.03 390.933 432.03 390.145 431.636Z" fill="#06033E"/>
<path opacity="0.4" d="M270.934 344.915L260.688 339.002C259.9 338.608 259.9 337.622 260.885 337.228L271.131 331.315C272.116 330.724 273.496 330.724 274.284 331.118L284.53 337.031C285.318 337.425 285.318 338.411 284.333 338.805L274.087 344.718C273.299 345.309 271.722 345.506 270.934 344.915Z" fill="#06033E"/>
<path opacity="0.4" d="M254.776 335.651L244.53 329.738C243.742 329.344 243.742 328.359 244.727 327.965L254.973 322.052C255.959 321.461 257.338 321.461 258.126 321.855L268.372 327.768C269.161 328.162 269.161 329.147 268.175 329.541L257.929 335.454C257.141 336.045 255.762 336.243 254.776 335.651Z" fill="#06033E"/>
<path opacity="0.4" d="M238.816 326.388L216.747 313.577C215.959 313.183 215.959 312.197 216.944 311.803L227.19 305.89C228.176 305.299 229.555 305.299 230.343 305.693L252.412 318.504C253.2 318.898 253.2 319.884 252.215 320.278L241.969 326.191C240.983 326.782 239.604 326.782 238.816 326.388Z" fill="#06033E"/>
<path opacity="0.4" d="M250.047 315.154L232.116 304.708C231.328 304.313 231.328 303.328 232.314 302.934L242.56 297.021C243.545 296.43 244.924 296.43 245.712 296.824L263.643 307.27C264.432 307.664 264.431 308.649 263.446 309.044L253.2 314.956C252.215 315.548 250.836 315.548 250.047 315.154Z" fill="#06033E"/>
<path opacity="0.4" d="M286.697 354.178L276.451 348.265C275.663 347.871 275.663 346.886 276.648 346.491L286.894 340.579C287.88 339.987 289.259 339.987 290.047 340.382L300.293 346.294C301.082 346.689 301.082 347.674 300.096 348.068L289.85 353.981C289.062 354.572 287.683 354.572 286.697 354.178Z" fill="#06033E"/>
<path opacity="0.4" d="M302.658 363.244L292.412 357.332C291.623 356.937 291.623 355.952 292.609 355.558L302.855 349.645C303.84 349.054 305.219 349.054 306.008 349.448L316.254 355.361C317.042 355.755 317.042 356.74 316.057 357.135L305.811 363.047C304.825 363.639 303.446 363.639 302.658 363.244Z" fill="#06033E"/>
<path opacity="0.4" d="M318.421 372.311L308.175 366.398C307.387 366.004 307.387 365.018 308.372 364.624L318.618 358.711C319.603 358.12 320.983 358.12 321.771 358.514L332.017 364.427C332.805 364.821 332.805 365.807 331.82 366.201L321.574 372.114C320.786 372.705 319.209 372.902 318.421 372.311Z" fill="#06033E"/>
<path opacity="0.4" d="M334.185 381.574L323.938 375.661C323.15 375.267 323.15 374.282 324.136 373.888L334.382 367.975C335.367 367.383 336.746 367.383 337.534 367.778L347.781 373.691C348.569 374.085 348.569 375.07 347.584 375.464L337.337 381.377C336.549 381.968 335.17 381.968 334.185 381.574Z" fill="#06033E"/>
<path opacity="0.4" d="M350.145 390.641L339.899 384.728C339.111 384.334 339.111 383.348 340.096 382.954L350.342 377.041C351.327 376.45 352.707 376.45 353.495 376.844L363.741 382.757C364.529 383.151 364.529 384.136 363.544 384.531L353.298 390.443C352.313 391.035 350.933 391.232 350.145 390.641Z" fill="#06033E"/>
<path opacity="0.4" d="M365.909 399.904L355.662 393.991C354.874 393.597 354.874 392.611 355.859 392.217L366.106 386.304C367.091 385.713 368.47 385.713 369.258 386.107L379.505 392.02C380.293 392.414 380.293 393.4 379.307 393.794L369.061 399.707C368.273 400.298 366.697 400.298 365.909 399.904Z" fill="#06033E"/>
<path opacity="0.4" d="M381.672 408.97L371.426 403.057C370.638 402.663 370.638 401.678 371.623 401.284L381.869 395.371C382.854 394.78 384.234 394.78 385.022 395.174L395.268 401.087C396.056 401.481 396.056 402.466 395.071 402.86L384.825 408.773C384.037 409.364 382.657 409.364 381.672 408.97Z" fill="#06033E"/>
<path opacity="0.4" d="M397.632 418.037L387.386 412.124C386.598 411.73 386.598 410.744 387.583 410.35L397.83 404.437C398.815 403.846 400.194 403.846 400.982 404.24L411.228 410.153C412.017 410.547 412.017 411.533 411.031 411.927L400.785 417.84C399.8 418.431 398.421 418.628 397.632 418.037Z" fill="#06033E"/>
<path opacity="0.4" d="M413.396 427.3L403.15 421.387C402.362 420.993 402.362 420.008 403.347 419.613L413.593 413.701C414.578 413.109 415.958 413.109 416.746 413.503L426.992 419.416C427.78 419.811 427.78 420.796 426.795 421.19L416.549 427.103C415.76 427.694 414.184 427.694 413.396 427.3Z" fill="#06033E"/>
<path opacity="0.4" d="M441.573 443.462L419.11 430.454C418.322 430.059 418.322 429.074 419.307 428.68L429.553 422.767C430.539 422.176 431.918 422.176 432.706 422.57L455.169 435.578C455.957 435.972 455.957 436.958 454.972 437.352L444.726 443.265C443.74 443.856 442.361 444.053 441.573 443.462Z" fill="#06033E"/>
<path opacity="0.4" d="M472.312 425.723L453.396 414.883C452.607 414.489 452.607 413.503 453.593 413.109L463.839 407.196C464.824 406.605 466.203 406.605 466.992 406.999L485.908 417.84C486.696 418.234 486.696 419.219 485.711 419.613L475.464 425.526C474.676 426.117 473.297 426.118 472.312 425.723Z" fill="#06033E"/>
<path opacity="0.4" d="M314.48 352.404L304.234 346.491C303.446 346.097 303.446 345.112 304.431 344.718L314.677 338.805C315.663 338.214 317.042 338.214 317.83 338.608L328.076 344.521C328.865 344.915 328.865 345.9 327.879 346.294L317.633 352.207C316.845 352.798 315.269 352.799 314.48 352.404Z" fill="#06033E"/>
<path opacity="0.4" d="M298.323 342.944L288.077 337.031C287.289 336.637 287.289 335.651 288.274 335.257L298.52 329.344C299.505 328.753 300.884 328.753 301.673 329.147L311.919 335.06C312.707 335.454 312.707 336.44 311.722 336.834L301.476 342.747C300.49 343.338 299.111 343.338 298.323 342.944Z" fill="#06033E"/>
<path opacity="0.4" d="M281.968 333.483L271.722 327.57C270.934 327.176 270.934 326.191 271.919 325.797L282.165 319.884C283.151 319.292 284.53 319.292 285.318 319.687L295.564 325.599C296.352 325.994 296.352 326.979 295.367 327.373L285.121 333.286C284.333 334.075 282.954 334.075 281.968 333.483Z" fill="#06033E"/>
<path opacity="0.4" d="M265.811 324.22L255.565 318.307C254.776 317.913 254.776 316.927 255.762 316.533L266.008 310.62C266.993 310.029 268.372 310.029 269.161 310.423L279.407 316.336C280.195 316.73 280.195 317.716 279.21 318.11L268.963 324.023C268.175 324.614 266.599 324.614 265.811 324.22Z" fill="#06033E"/>
<path opacity="0.4" d="M330.244 361.471L319.998 355.558C319.209 355.164 319.209 354.178 320.195 353.784L330.441 347.871C331.426 347.28 332.805 347.28 333.594 347.674L343.84 353.587C344.628 353.981 344.628 354.967 343.643 355.361L333.397 361.274C332.608 361.865 331.229 361.865 330.244 361.471Z" fill="#06033E"/>
<path opacity="0.4" d="M346.204 370.537L335.958 364.624C335.17 364.23 335.17 363.244 336.155 362.85L346.401 356.937C347.387 356.346 348.766 356.346 349.554 356.74L359.8 362.653C360.588 363.047 360.588 364.033 359.603 364.427L349.357 370.34C348.372 370.931 346.992 371.128 346.204 370.537Z" fill="#06033E"/>
<path opacity="0.4" d="M361.968 379.8L351.722 373.888C350.933 373.493 350.933 372.508 351.919 372.114L362.165 366.201C363.15 365.61 364.529 365.61 365.317 366.004L375.564 371.917C376.352 372.311 376.352 373.296 375.367 373.69L365.12 379.603C364.332 380.195 362.756 380.195 361.968 379.8Z" fill="#06033E"/>
<path opacity="0.4" d="M377.731 388.867L367.485 382.954C366.697 382.56 366.697 381.574 367.682 381.18L377.928 375.267C378.913 374.676 380.293 374.676 381.081 375.07L391.327 380.983C392.115 381.377 392.115 382.363 391.13 382.757L380.884 388.67C380.096 389.261 378.716 389.261 377.731 388.867Z" fill="#06033E"/>
<path opacity="0.4" d="M393.692 397.933L383.445 392.02C382.657 391.626 382.657 390.641 383.642 390.246L393.889 384.334C394.874 383.742 396.253 383.742 397.041 384.136L407.288 390.049C408.076 390.443 408.076 391.429 407.091 391.823L396.844 397.736C395.859 398.524 394.48 398.524 393.692 397.933Z" fill="#06033E"/>
<path opacity="0.4" d="M409.455 407.196L399.209 401.284C398.421 400.889 398.421 399.904 399.406 399.51L409.652 393.597C410.637 393.006 412.017 393.006 412.805 393.4L423.051 399.313C423.839 399.707 423.839 400.692 422.854 401.087L412.608 406.999C411.82 407.591 410.243 407.591 409.455 407.196Z" fill="#06033E"/>
<path opacity="0.4" d="M425.416 416.263L415.169 410.35C414.381 409.956 414.381 408.97 415.366 408.576L425.613 402.663C426.598 402.072 427.977 402.072 428.765 402.466L439.011 408.379C439.8 408.773 439.8 409.759 438.814 410.153L428.568 416.066C427.583 416.657 426.204 416.854 425.416 416.263Z" fill="#06033E"/>
<path opacity="0.4" d="M441.179 425.526L430.933 419.613C430.145 419.219 430.145 418.234 431.13 417.84L441.376 411.927C442.361 411.335 443.741 411.335 444.529 411.73L454.775 417.642C455.563 418.037 455.563 419.022 454.578 419.416L444.332 425.329C443.346 425.92 441.967 425.92 441.179 425.526Z" fill="#06033E"/>
<path opacity="0.4" d="M456.942 434.593L446.696 428.68C445.908 428.286 445.908 427.3 446.893 426.906L457.139 420.993C458.125 420.402 459.504 420.402 460.292 420.796L470.538 426.709C471.327 427.103 471.327 428.088 470.341 428.483L460.095 434.395C459.307 434.987 457.731 434.987 456.942 434.593Z" fill="#06033E"/>
<path opacity="0.4" d="M306.205 329.738L295.958 323.826C295.17 323.431 295.17 322.446 296.155 322.052L306.402 316.139C307.387 315.548 308.766 315.548 309.554 315.942L319.801 321.855C320.589 322.249 320.589 323.234 319.604 323.629L309.357 329.541C308.372 330.133 306.993 330.133 306.205 329.738Z" fill="#06033E"/>
<path opacity="0.4" d="M290.441 320.672L280.195 314.759C279.407 314.365 279.407 313.38 280.392 312.985L290.638 307.073C291.623 306.481 293.003 306.481 293.791 306.876L304.037 312.788C304.825 313.183 304.825 314.168 303.84 314.562L293.594 320.475C292.609 321.066 291.229 321.066 290.441 320.672Z" fill="#06033E"/>
<path opacity="0.4" d="M274.678 311.409L264.432 305.496C263.643 305.102 263.643 304.116 264.629 303.722L274.875 297.809C275.86 297.218 277.239 297.218 278.028 297.612L288.274 303.525C289.062 303.919 289.062 304.905 288.077 305.299L277.83 311.212C276.845 312 275.466 312 274.678 311.409Z" fill="#06033E"/>
<path opacity="0.4" d="M258.914 302.342L248.668 296.43C247.88 296.035 247.88 295.05 248.865 294.656L259.111 288.743C260.097 288.152 261.476 288.152 262.264 288.546L272.51 294.459C273.298 294.853 273.298 295.838 272.313 296.233L262.067 302.145C261.082 302.737 259.702 302.934 258.914 302.342Z" fill="#06033E"/>
<path opacity="0.4" d="M275.072 293.079L264.826 287.166C264.037 286.772 264.037 285.786 265.023 285.392L268.372 283.421C269.358 282.83 270.737 282.83 271.525 283.224L281.771 289.137C282.559 289.531 282.559 290.517 281.574 290.911L278.224 292.882C277.436 293.473 275.86 293.473 275.072 293.079Z" fill="#06033E"/>
<path opacity="0.4" d="M295.564 304.905L285.318 298.992C284.53 298.598 284.53 297.612 285.515 297.218L288.865 295.247C289.85 294.656 291.229 294.656 292.018 295.05L302.264 300.963C303.052 301.357 303.052 302.342 302.067 302.737L298.717 304.708C297.929 305.299 296.55 305.496 295.564 304.905Z" fill="#06033E"/>
<path opacity="0.4" d="M311.328 313.971L301.082 308.058C300.293 307.664 300.293 306.678 301.279 306.284L304.628 304.313C305.613 303.722 306.993 303.722 307.781 304.116L318.027 310.029C318.815 310.423 318.815 311.409 317.83 311.803L314.48 313.774C313.692 314.365 312.116 314.365 311.328 313.971Z" fill="#06033E"/>
<path opacity="0.4" d="M327.091 323.037L316.845 317.124C316.057 316.73 316.057 315.745 317.042 315.351L320.392 313.38C321.377 312.788 322.756 312.788 323.544 313.183L333.791 319.095C334.579 319.49 334.579 320.475 333.594 320.869L330.244 322.84C329.259 323.431 327.879 323.431 327.091 323.037Z" fill="#06033E"/>
<path opacity="0.4" d="M342.658 332.104L332.411 326.191C331.623 325.797 331.623 324.811 332.608 324.417L335.958 322.446C336.943 321.855 338.323 321.855 339.111 322.249L349.357 328.162C350.145 328.556 350.145 329.541 349.16 329.936L345.81 331.907C345.022 332.498 343.643 332.498 342.658 332.104Z" fill="#06033E"/>
<path opacity="0.4" d="M430.342 382.757L420.095 376.844C419.307 376.45 419.307 375.464 420.292 375.07L423.642 373.099C424.627 372.508 426.007 372.508 426.795 372.902L437.041 378.815C437.829 379.209 437.829 380.195 436.844 380.589L433.494 382.56C432.509 383.151 431.13 383.151 430.342 382.757Z" fill="#06033E"/>
<path opacity="0.4" d="M445.908 391.823L435.662 385.91C434.874 385.516 434.874 384.531 435.859 384.136L439.209 382.166C440.194 381.574 441.573 381.574 442.361 381.968L452.607 387.881C453.396 388.275 453.396 389.261 452.41 389.655L449.061 391.626C448.272 392.217 446.893 392.217 445.908 391.823Z" fill="#06033E"/>
<path opacity="0.4" d="M461.671 400.889L451.425 394.977C450.637 394.582 450.637 393.597 451.622 393.203L454.972 391.232C455.957 390.641 457.337 390.641 458.125 391.035L468.371 396.948C469.159 397.342 469.159 398.327 468.174 398.721L464.824 400.692C464.036 401.284 462.46 401.284 461.671 400.889Z" fill="#06033E"/>
<path opacity="0.4" d="M477.435 409.759L467.189 403.846C466.4 403.452 466.4 402.466 467.386 402.072L470.735 400.101C471.721 399.51 473.1 399.51 473.888 399.904L484.134 405.817C484.923 406.211 484.923 407.196 483.937 407.591L480.588 409.562C479.602 410.35 478.223 410.35 477.435 409.759Z" fill="#06033E"/>
<path opacity="0.4" d="M321.968 338.805L311.722 332.892C310.934 332.498 310.934 331.512 311.919 331.118L322.165 325.205C323.15 324.614 324.53 324.614 325.318 325.008L335.564 330.921C336.352 331.315 336.352 332.301 335.367 332.695L325.121 338.608C324.333 339.199 322.756 339.396 321.968 338.805Z" fill="#06033E"/>
<path opacity="0.4" d="M337.731 348.068L327.485 342.155C326.697 341.761 326.697 340.776 327.682 340.382L337.929 334.469C338.914 333.877 340.293 333.878 341.081 334.272L351.327 340.185C352.116 340.579 352.116 341.564 351.13 341.958L340.884 347.871C340.096 348.462 338.717 348.462 337.731 348.068Z" fill="#06033E"/>
<path opacity="0.4" d="M353.692 357.135L343.446 351.222C342.658 350.828 342.658 349.842 343.643 349.448L353.889 343.535C354.874 342.944 356.253 342.944 357.042 343.338L367.288 349.251C368.076 349.645 368.076 350.63 367.091 351.025L356.845 356.937C355.859 357.529 354.48 357.529 353.692 357.135Z" fill="#06033E"/>
<path opacity="0.4" d="M369.455 366.201L359.209 360.288C358.421 359.894 358.421 358.908 359.406 358.514L369.652 352.601C370.638 352.01 372.017 352.01 372.805 352.404L383.051 358.317C383.84 358.711 383.84 359.697 382.854 360.091L372.608 366.004C371.82 366.595 370.244 366.792 369.455 366.201Z" fill="#06033E"/>
<path opacity="0.4" d="M385.416 375.464L375.17 369.551C374.381 369.157 374.381 368.172 375.367 367.778L385.613 361.865C386.598 361.274 387.977 361.274 388.766 361.668L399.012 367.581C399.8 367.975 399.8 368.96 398.815 369.354L388.568 375.267C387.583 375.858 386.204 375.858 385.416 375.464Z" fill="#06033E"/>
<path opacity="0.4" d="M401.179 384.531L390.933 378.618C390.145 378.224 390.145 377.238 391.13 376.844L401.376 370.931C402.362 370.34 403.741 370.34 404.529 370.734L414.775 376.647C415.563 377.041 415.563 378.027 414.578 378.421L404.332 384.334C403.347 384.925 401.967 385.122 401.179 384.531Z" fill="#06033E"/>
<path opacity="0.4" d="M416.943 393.794L406.696 387.881C405.908 387.487 405.908 386.502 406.894 386.107L417.14 380.195C418.125 379.603 419.504 379.603 420.292 379.997L430.539 385.91C431.327 386.305 431.327 387.29 430.342 387.684L420.095 393.597C419.307 394.188 417.731 394.188 416.943 393.794Z" fill="#06033E"/>
<path opacity="0.4" d="M432.903 402.86L422.657 396.948C421.869 396.553 421.869 395.568 422.854 395.174L433.1 389.261C434.085 388.67 435.465 388.67 436.253 389.064L446.499 394.977C447.287 395.371 447.287 396.356 446.302 396.75L436.056 402.663C435.071 403.255 433.691 403.255 432.903 402.86Z" fill="#06033E"/>
<path opacity="0.4" d="M448.667 411.927L438.42 406.014C437.632 405.62 437.632 404.634 438.617 404.24L448.864 398.327C449.849 397.736 451.228 397.736 452.016 398.13L462.263 404.043C463.051 404.437 463.051 405.423 462.066 405.817L451.819 411.73C450.834 412.321 449.455 412.518 448.667 411.927Z" fill="#06033E"/>
<path opacity="0.4" d="M231.525 339.987L201.378 322.643C200.59 322.249 200.59 321.263 201.575 320.869L211.821 314.956C212.806 314.365 214.186 314.365 214.974 314.759L245.121 332.104C245.909 332.498 245.909 333.483 244.924 333.877L234.678 339.79C233.693 340.382 232.314 340.382 231.525 339.987Z" fill="#06033E"/>
<path opacity="0.4" d="M426.007 452.331L395.859 434.987C395.071 434.593 395.071 433.607 396.056 433.213L406.302 427.3C407.288 426.709 408.667 426.709 409.455 427.103L439.603 444.447C440.391 444.841 440.391 445.827 439.406 446.221L429.159 452.134C428.174 452.725 426.795 452.725 426.007 452.331Z" fill="#06033E"/>
<path opacity="0.4" d="M362.756 435.972L352.51 430.059C351.721 429.665 351.721 428.68 352.707 428.286L364.726 421.387C365.712 420.796 367.091 420.796 367.879 421.19L378.125 427.103C378.913 427.497 378.913 428.483 377.928 428.877L365.909 435.775C364.923 436.366 363.544 436.366 362.756 435.972Z" fill="#06033E"/>
<path opacity="0.4" d="M247.683 369.551L231.328 360.091C230.54 359.697 230.54 358.711 231.525 358.317L243.545 351.419C244.53 350.828 245.909 350.828 246.698 351.222L263.052 360.682C263.84 361.076 263.84 362.062 262.855 362.456L250.836 369.354C250.047 369.946 248.471 369.946 247.683 369.551Z" fill="#06033E"/>
<path opacity="0.4" d="M347.387 427.103L331.032 417.642C330.244 417.248 330.244 416.263 331.229 415.869L343.249 408.97C344.234 408.379 345.613 408.379 346.401 408.773L362.756 418.234C363.544 418.628 363.544 419.613 362.559 420.008L350.539 426.906C349.751 427.497 348.175 427.497 347.387 427.103Z" fill="#06033E"/>
<path opacity="0.4" d="M270.54 382.757L254.185 373.296C253.397 372.902 253.397 371.917 254.382 371.522L266.402 364.624C267.387 364.033 268.766 364.033 269.555 364.427L285.909 373.888C286.697 374.282 286.697 375.267 285.712 375.661L273.693 382.56C272.707 383.151 271.328 383.151 270.54 382.757Z" fill="#06033E"/>
<path opacity="0.4" d="M269.752 364.427L341.081 405.62C341.869 406.211 341.869 406.999 341.081 407.394L328.667 414.489C327.879 415.08 326.303 415.08 325.515 414.489L254.185 373.296L269.752 364.427Z" fill="#06033E"/>
<path opacity="0.4" d="M406.893 452.528L418.322 459.032C418.913 459.426 418.913 460.018 418.125 460.609L413.199 463.565C412.411 463.96 411.228 464.157 410.637 463.762L399.209 457.258C398.618 456.864 398.618 456.273 399.406 455.682L404.332 452.725C405.12 452.134 406.302 452.134 406.893 452.528Z" fill="#06033E"/>
<path opacity="0.4" d="M390.933 443.265L402.362 449.769C402.953 450.163 402.953 450.754 402.165 451.346L397.238 454.302C396.45 454.696 395.268 454.893 394.677 454.499L383.248 447.995C382.657 447.601 382.657 447.009 383.445 446.418L388.372 443.462C389.16 442.87 390.342 442.87 390.933 443.265Z" fill="#06033E"/>
<path opacity="0.4" d="M375.17 434.198L386.598 440.702C387.189 441.097 387.189 441.688 386.401 442.279L381.475 445.236C380.687 445.63 379.505 445.827 378.913 445.433L367.485 438.929C366.894 438.534 366.894 437.943 367.682 437.352L372.608 434.395C373.199 433.804 374.381 433.804 375.17 434.198Z" fill="#06033E"/>
<path opacity="0.4" d="M399.603 438.14L411.031 444.644C411.623 445.039 411.623 445.63 410.834 446.221L405.908 449.178C405.12 449.572 403.938 449.769 403.347 449.375L391.918 442.871C391.327 442.476 391.327 441.885 392.115 441.294L397.041 438.337C397.83 437.943 399.012 437.746 399.603 438.14Z" fill="#06033E"/>
</g>
<g opacity="0.4">
<path opacity="0.4" d="M194.087 338.608L183.841 332.695C183.053 332.301 183.053 331.315 184.038 330.921L196.058 324.023C197.043 323.431 198.422 323.431 199.21 323.826L209.457 329.738C210.245 330.133 210.245 331.118 209.26 331.512L197.24 338.411C196.255 339.002 194.875 339.002 194.087 338.608Z" fill="#06033E"/>
<path opacity="0.4" d="M209.851 347.674L199.604 341.761C198.816 341.367 198.816 340.382 199.801 339.987L211.821 333.089C212.806 332.498 214.186 332.498 214.974 332.892L225.22 338.805C226.008 339.199 226.008 340.184 225.023 340.579L213.003 347.477C212.215 348.068 210.639 348.265 209.851 347.674Z" fill="#06033E"/>
<path opacity="0.4" d="M225.811 356.74L215.565 350.828C214.777 350.433 214.777 349.448 215.762 349.054L227.782 342.155C228.767 341.564 230.146 341.564 230.934 341.958L241.18 347.871C241.969 348.265 241.969 349.251 240.983 349.645L228.964 356.543C227.979 357.332 226.599 357.332 225.811 356.74Z" fill="#06033E"/>
<path opacity="0.4" d="M247.683 349.251L237.437 343.338C236.648 342.944 236.648 341.958 237.634 341.564L247.88 335.651C248.865 335.06 250.244 335.06 251.033 335.454L261.279 341.367C262.067 341.761 262.067 342.747 261.082 343.141L250.836 349.054C249.85 349.645 248.471 349.842 247.683 349.251Z" fill="#06033E"/>
<path opacity="0.4" d="M263.446 358.514L253.2 352.601C252.412 352.207 252.412 351.222 253.397 350.828L263.643 344.915C264.629 344.323 266.008 344.323 266.796 344.718L277.042 350.63C277.83 351.025 277.83 352.01 276.845 352.404L266.599 358.317C265.614 358.908 264.234 358.908 263.446 358.514Z" fill="#06033E"/>
<path opacity="0.4" d="M279.21 367.581L268.964 361.668C268.175 361.274 268.175 360.288 269.161 359.894L279.407 353.981C280.392 353.39 281.771 353.39 282.559 353.784L292.806 359.697C293.594 360.091 293.594 361.076 292.609 361.471L282.362 367.383C281.574 367.975 280.195 367.975 279.21 367.581Z" fill="#06033E"/>
<path opacity="0.4" d="M295.17 376.647L284.924 370.734C284.136 370.34 284.136 369.354 285.121 368.96L295.367 363.047C296.352 362.456 297.732 362.456 298.52 362.85L308.766 368.763C309.554 369.157 309.554 370.143 308.569 370.537L298.323 376.45C297.338 377.041 295.958 377.238 295.17 376.647Z" fill="#06033E"/>
<path opacity="0.4" d="M310.934 385.91L300.687 379.997C299.899 379.603 299.899 378.618 300.884 378.224L311.131 372.311C312.116 371.72 313.495 371.72 314.283 372.114L324.53 378.027C325.318 378.421 325.318 379.406 324.333 379.8L314.086 385.713C313.298 386.304 311.722 386.304 310.934 385.91Z" fill="#06033E"/>
<path opacity="0.4" d="M326.697 394.977L316.451 389.064C315.663 388.67 315.663 387.684 316.648 387.29L326.894 381.377C327.879 380.786 329.259 380.786 330.047 381.18L340.293 387.093C341.081 387.487 341.081 388.473 340.096 388.867L329.85 394.78C329.062 395.371 327.682 395.568 326.697 394.977Z" fill="#06033E"/>
<path opacity="0.4" d="M342.657 404.24L332.411 398.327C331.623 397.933 331.623 396.948 332.608 396.553L342.855 390.641C343.84 390.049 345.219 390.049 346.007 390.443L356.253 396.356C357.042 396.751 357.042 397.736 356.056 398.13L345.81 404.043C344.825 404.634 343.446 404.634 342.657 404.24Z" fill="#06033E"/>
<path opacity="0.4" d="M358.421 413.306L348.175 407.394C347.387 406.999 347.387 406.014 348.372 405.62L358.618 399.707C359.603 399.116 360.983 399.116 361.771 399.51L372.017 405.423C372.805 405.817 372.805 406.802 371.82 407.196L361.574 413.109C360.785 413.701 359.209 413.701 358.421 413.306Z" fill="#06033E"/>
<path opacity="0.4" d="M374.184 422.373L363.938 416.46C363.15 416.066 363.15 415.08 364.135 414.686L374.381 408.773C375.367 408.182 376.746 408.182 377.534 408.576L387.78 414.489C388.569 414.883 388.569 415.869 387.583 416.263L377.337 422.176C376.549 422.767 375.17 422.964 374.184 422.373Z" fill="#06033E"/>
<path opacity="0.4" d="M390.145 431.636L379.899 425.723C379.11 425.329 379.11 424.344 380.096 423.949L390.342 418.037C391.327 417.445 392.706 417.445 393.495 417.84L403.741 423.752C404.529 424.147 404.529 425.132 403.544 425.526L393.298 431.439C392.312 432.03 390.933 432.03 390.145 431.636Z" fill="#06033E"/>
<path opacity="0.4" d="M270.934 344.915L260.688 339.002C259.9 338.608 259.9 337.622 260.885 337.228L271.131 331.315C272.116 330.724 273.496 330.724 274.284 331.118L284.53 337.031C285.318 337.425 285.318 338.411 284.333 338.805L274.087 344.718C273.299 345.309 271.722 345.506 270.934 344.915Z" fill="#06033E"/>
<path opacity="0.4" d="M254.776 335.651L244.53 329.738C243.742 329.344 243.742 328.359 244.727 327.965L254.973 322.052C255.959 321.461 257.338 321.461 258.126 321.855L268.372 327.768C269.161 328.162 269.161 329.147 268.175 329.541L257.929 335.454C257.141 336.045 255.762 336.243 254.776 335.651Z" fill="#06033E"/>
<path opacity="0.4" d="M238.816 326.388L216.747 313.577C215.959 313.183 215.959 312.197 216.944 311.803L227.19 305.89C228.176 305.299 229.555 305.299 230.343 305.693L252.412 318.504C253.2 318.898 253.2 319.884 252.215 320.278L241.969 326.191C240.983 326.782 239.604 326.782 238.816 326.388Z" fill="#06033E"/>
<path opacity="0.4" d="M250.047 315.154L232.116 304.708C231.328 304.313 231.328 303.328 232.314 302.934L242.56 297.021C243.545 296.43 244.924 296.43 245.712 296.824L263.643 307.27C264.432 307.664 264.431 308.649 263.446 309.044L253.2 314.956C252.215 315.548 250.836 315.548 250.047 315.154Z" fill="#06033E"/>
<path opacity="0.4" d="M286.697 354.178L276.451 348.265C275.663 347.871 275.663 346.886 276.648 346.491L286.894 340.579C287.88 339.987 289.259 339.987 290.047 340.382L300.293 346.294C301.082 346.689 301.082 347.674 300.096 348.068L289.85 353.981C289.062 354.572 287.683 354.572 286.697 354.178Z" fill="#06033E"/>
<path opacity="0.4" d="M302.658 363.244L292.412 357.332C291.623 356.937 291.623 355.952 292.609 355.558L302.855 349.645C303.84 349.054 305.219 349.054 306.008 349.448L316.254 355.361C317.042 355.755 317.042 356.74 316.057 357.135L305.811 363.047C304.825 363.639 303.446 363.639 302.658 363.244Z" fill="#06033E"/>
<path opacity="0.4" d="M318.421 372.311L308.175 366.398C307.387 366.004 307.387 365.018 308.372 364.624L318.618 358.711C319.603 358.12 320.983 358.12 321.771 358.514L332.017 364.427C332.805 364.821 332.805 365.807 331.82 366.201L321.574 372.114C320.786 372.705 319.209 372.902 318.421 372.311Z" fill="#06033E"/>
<path opacity="0.4" d="M334.185 381.574L323.938 375.661C323.15 375.267 323.15 374.282 324.136 373.888L334.382 367.975C335.367 367.383 336.746 367.383 337.534 367.778L347.781 373.691C348.569 374.085 348.569 375.07 347.584 375.464L337.337 381.377C336.549 381.968 335.17 381.968 334.185 381.574Z" fill="#06033E"/>
<path opacity="0.4" d="M350.145 390.641L339.899 384.728C339.111 384.334 339.111 383.348 340.096 382.954L350.342 377.041C351.327 376.45 352.707 376.45 353.495 376.844L363.741 382.757C364.529 383.151 364.529 384.136 363.544 384.531L353.298 390.443C352.313 391.035 350.933 391.232 350.145 390.641Z" fill="#06033E"/>
<path opacity="0.4" d="M365.909 399.904L355.662 393.991C354.874 393.597 354.874 392.611 355.859 392.217L366.106 386.304C367.091 385.713 368.47 385.713 369.258 386.107L379.505 392.02C380.293 392.414 380.293 393.4 379.307 393.794L369.061 399.707C368.273 400.298 366.697 400.298 365.909 399.904Z" fill="#06033E"/>
<path opacity="0.4" d="M381.672 408.97L371.426 403.057C370.638 402.663 370.638 401.678 371.623 401.284L381.869 395.371C382.854 394.78 384.234 394.78 385.022 395.174L395.268 401.087C396.056 401.481 396.056 402.466 395.071 402.86L384.825 408.773C384.037 409.364 382.657 409.364 381.672 408.97Z" fill="#06033E"/>
<path opacity="0.4" d="M397.632 418.037L387.386 412.124C386.598 411.73 386.598 410.744 387.583 410.35L397.83 404.437C398.815 403.846 400.194 403.846 400.982 404.24L411.228 410.153C412.017 410.547 412.017 411.533 411.031 411.927L400.785 417.84C399.8 418.431 398.421 418.628 397.632 418.037Z" fill="#06033E"/>
<path opacity="0.4" d="M413.396 427.3L403.15 421.387C402.362 420.993 402.362 420.008 403.347 419.613L413.593 413.701C414.578 413.109 415.958 413.109 416.746 413.503L426.992 419.416C427.78 419.811 427.78 420.796 426.795 421.19L416.549 427.103C415.76 427.694 414.184 427.694 413.396 427.3Z" fill="#06033E"/>
<path opacity="0.4" d="M441.573 443.462L419.11 430.454C418.322 430.059 418.322 429.074 419.307 428.68L429.553 422.767C430.539 422.176 431.918 422.176 432.706 422.57L455.169 435.578C455.957 435.972 455.957 436.958 454.972 437.352L444.726 443.265C443.74 443.856 442.361 444.053 441.573 443.462Z" fill="#06033E"/>
<path opacity="0.4" d="M472.312 425.723L453.396 414.883C452.607 414.489 452.607 413.503 453.593 413.109L463.839 407.196C464.824 406.605 466.203 406.605 466.992 406.999L485.908 417.84C486.696 418.234 486.696 419.219 485.711 419.613L475.464 425.526C474.676 426.117 473.297 426.118 472.312 425.723Z" fill="#06033E"/>
<path opacity="0.4" d="M314.48 352.404L304.234 346.491C303.446 346.097 303.446 345.112 304.431 344.718L314.677 338.805C315.663 338.214 317.042 338.214 317.83 338.608L328.076 344.521C328.865 344.915 328.865 345.9 327.879 346.294L317.633 352.207C316.845 352.798 315.269 352.799 314.48 352.404Z" fill="#06033E"/>
<path opacity="0.4" d="M298.323 342.944L288.077 337.031C287.289 336.637 287.289 335.651 288.274 335.257L298.52 329.344C299.505 328.753 300.884 328.753 301.673 329.147L311.919 335.06C312.707 335.454 312.707 336.44 311.722 336.834L301.476 342.747C300.49 343.338 299.111 343.338 298.323 342.944Z" fill="#06033E"/>
<path opacity="0.4" d="M281.968 333.483L271.722 327.57C270.934 327.176 270.934 326.191 271.919 325.797L282.165 319.884C283.151 319.292 284.53 319.292 285.318 319.687L295.564 325.599C296.352 325.994 296.352 326.979 295.367 327.373L285.121 333.286C284.333 334.075 282.954 334.075 281.968 333.483Z" fill="#06033E"/>
<path opacity="0.4" d="M265.811 324.22L255.565 318.307C254.776 317.913 254.776 316.927 255.762 316.533L266.008 310.62C266.993 310.029 268.372 310.029 269.161 310.423L279.407 316.336C280.195 316.73 280.195 317.716 279.21 318.11L268.963 324.023C268.175 324.614 266.599 324.614 265.811 324.22Z" fill="#06033E"/>
<path opacity="0.4" d="M330.244 361.471L319.998 355.558C319.209 355.164 319.209 354.178 320.195 353.784L330.441 347.871C331.426 347.28 332.805 347.28 333.594 347.674L343.84 353.587C344.628 353.981 344.628 354.967 343.643 355.361L333.397 361.274C332.608 361.865 331.229 361.865 330.244 361.471Z" fill="#06033E"/>
<path opacity="0.4" d="M346.204 370.537L335.958 364.624C335.17 364.23 335.17 363.244 336.155 362.85L346.401 356.937C347.387 356.346 348.766 356.346 349.554 356.74L359.8 362.653C360.588 363.047 360.588 364.033 359.603 364.427L349.357 370.34C348.372 370.931 346.992 371.128 346.204 370.537Z" fill="#06033E"/>
<path opacity="0.4" d="M361.968 379.8L351.722 373.888C350.933 373.493 350.933 372.508 351.919 372.114L362.165 366.201C363.15 365.61 364.529 365.61 365.317 366.004L375.564 371.917C376.352 372.311 376.352 373.296 375.367 373.69L365.12 379.603C364.332 380.195 362.756 380.195 361.968 379.8Z" fill="#06033E"/>
<path opacity="0.4" d="M377.731 388.867L367.485 382.954C366.697 382.56 366.697 381.574 367.682 381.18L377.928 375.267C378.913 374.676 380.293 374.676 381.081 375.07L391.327 380.983C392.115 381.377 392.115 382.363 391.13 382.757L380.884 388.67C380.096 389.261 378.716 389.261 377.731 388.867Z" fill="#06033E"/>
<path opacity="0.4" d="M393.692 397.933L383.445 392.02C382.657 391.626 382.657 390.641 383.642 390.246L393.889 384.334C394.874 383.742 396.253 383.742 397.041 384.136L407.288 390.049C408.076 390.443 408.076 391.429 407.091 391.823L396.844 397.736C395.859 398.524 394.48 398.524 393.692 397.933Z" fill="#06033E"/>
<path opacity="0.4" d="M409.455 407.196L399.209 401.284C398.421 400.889 398.421 399.904 399.406 399.51L409.652 393.597C410.637 393.006 412.017 393.006 412.805 393.4L423.051 399.313C423.839 399.707 423.839 400.692 422.854 401.087L412.608 406.999C411.82 407.591 410.243 407.591 409.455 407.196Z" fill="#06033E"/>
<path opacity="0.4" d="M425.416 416.263L415.169 410.35C414.381 409.956 414.381 408.97 415.366 408.576L425.613 402.663C426.598 402.072 427.977 402.072 428.765 402.466L439.011 408.379C439.8 408.773 439.8 409.759 438.814 410.153L428.568 416.066C427.583 416.657 426.204 416.854 425.416 416.263Z" fill="#06033E"/>
<path opacity="0.4" d="M441.179 425.526L430.933 419.613C430.145 419.219 430.145 418.234 431.13 417.84L441.376 411.927C442.361 411.335 443.741 411.335 444.529 411.73L454.775 417.642C455.563 418.037 455.563 419.022 454.578 419.416L444.332 425.329C443.346 425.92 441.967 425.92 441.179 425.526Z" fill="#06033E"/>
<path opacity="0.4" d="M456.942 434.593L446.696 428.68C445.908 428.286 445.908 427.3 446.893 426.906L457.139 420.993C458.125 420.402 459.504 420.402 460.292 420.796L470.538 426.709C471.327 427.103 471.327 428.088 470.341 428.483L460.095 434.395C459.307 434.987 457.731 434.987 456.942 434.593Z" fill="#06033E"/>
<path opacity="0.4" d="M306.205 329.738L295.958 323.826C295.17 323.431 295.17 322.446 296.155 322.052L306.402 316.139C307.387 315.548 308.766 315.548 309.554 315.942L319.801 321.855C320.589 322.249 320.589 323.234 319.604 323.629L309.357 329.541C308.372 330.133 306.993 330.133 306.205 329.738Z" fill="#06033E"/>
<path opacity="0.4" d="M290.441 320.672L280.195 314.759C279.407 314.365 279.407 313.38 280.392 312.985L290.638 307.073C291.623 306.481 293.003 306.481 293.791 306.876L304.037 312.788C304.825 313.183 304.825 314.168 303.84 314.562L293.594 320.475C292.609 321.066 291.229 321.066 290.441 320.672Z" fill="#06033E"/>
<path opacity="0.4" d="M274.678 311.409L264.432 305.496C263.643 305.102 263.643 304.116 264.629 303.722L274.875 297.809C275.86 297.218 277.239 297.218 278.028 297.612L288.274 303.525C289.062 303.919 289.062 304.905 288.077 305.299L277.83 311.212C276.845 312 275.466 312 274.678 311.409Z" fill="#06033E"/>
<path opacity="0.4" d="M258.914 302.342L248.668 296.43C247.88 296.035 247.88 295.05 248.865 294.656L259.111 288.743C260.097 288.152 261.476 288.152 262.264 288.546L272.51 294.459C273.298 294.853 273.298 295.838 272.313 296.233L262.067 302.145C261.082 302.737 259.702 302.934 258.914 302.342Z" fill="#06033E"/>
<path opacity="0.4" d="M275.072 293.079L264.826 287.166C264.037 286.772 264.037 285.786 265.023 285.392L268.372 283.421C269.358 282.83 270.737 282.83 271.525 283.224L281.771 289.137C282.559 289.531 282.559 290.517 281.574 290.911L278.224 292.882C277.436 293.473 275.86 293.473 275.072 293.079Z" fill="#06033E"/>
<path opacity="0.4" d="M295.564 304.905L285.318 298.992C284.53 298.598 284.53 297.612 285.515 297.218L288.865 295.247C289.85 294.656 291.229 294.656 292.018 295.05L302.264 300.963C303.052 301.357 303.052 302.342 302.067 302.737L298.717 304.708C297.929 305.299 296.55 305.496 295.564 304.905Z" fill="#06033E"/>
<path opacity="0.4" d="M311.328 313.971L301.082 308.058C300.293 307.664 300.293 306.678 301.279 306.284L304.628 304.313C305.613 303.722 306.993 303.722 307.781 304.116L318.027 310.029C318.815 310.423 318.815 311.409 317.83 311.803L314.48 313.774C313.692 314.365 312.116 314.365 311.328 313.971Z" fill="#06033E"/>
<path opacity="0.4" d="M327.091 323.037L316.845 317.124C316.057 316.73 316.057 315.745 317.042 315.351L320.392 313.38C321.377 312.788 322.756 312.788 323.544 313.183L333.791 319.095C334.579 319.49 334.579 320.475 333.594 320.869L330.244 322.84C329.259 323.431 327.879 323.431 327.091 323.037Z" fill="#06033E"/>
<path opacity="0.4" d="M342.658 332.104L332.411 326.191C331.623 325.797 331.623 324.811 332.608 324.417L335.958 322.446C336.943 321.855 338.323 321.855 339.111 322.249L349.357 328.162C350.145 328.556 350.145 329.541 349.16 329.936L345.81 331.907C345.022 332.498 343.643 332.498 342.658 332.104Z" fill="#06033E"/>
<path opacity="0.4" d="M430.342 382.757L420.095 376.844C419.307 376.45 419.307 375.464 420.292 375.07L423.642 373.099C424.627 372.508 426.007 372.508 426.795 372.902L437.041 378.815C437.829 379.209 437.829 380.195 436.844 380.589L433.494 382.56C432.509 383.151 431.13 383.151 430.342 382.757Z" fill="#06033E"/>
<path opacity="0.4" d="M445.908 391.823L435.662 385.91C434.874 385.516 434.874 384.531 435.859 384.136L439.209 382.166C440.194 381.574 441.573 381.574 442.361 381.968L452.607 387.881C453.396 388.275 453.396 389.261 452.41 389.655L449.061 391.626C448.272 392.217 446.893 392.217 445.908 391.823Z" fill="#06033E"/>
<path opacity="0.4" d="M461.671 400.889L451.425 394.977C450.637 394.582 450.637 393.597 451.622 393.203L454.972 391.232C455.957 390.641 457.337 390.641 458.125 391.035L468.371 396.948C469.159 397.342 469.159 398.327 468.174 398.721L464.824 400.692C464.036 401.284 462.46 401.284 461.671 400.889Z" fill="#06033E"/>
<path opacity="0.4" d="M477.435 409.759L467.189 403.846C466.4 403.452 466.4 402.466 467.386 402.072L470.735 400.101C471.721 399.51 473.1 399.51 473.888 399.904L484.134 405.817C484.923 406.211 484.923 407.196 483.937 407.591L480.588 409.562C479.602 410.35 478.223 410.35 477.435 409.759Z" fill="#06033E"/>
<path opacity="0.4" d="M321.968 338.805L311.722 332.892C310.934 332.498 310.934 331.512 311.919 331.118L322.165 325.205C323.15 324.614 324.53 324.614 325.318 325.008L335.564 330.921C336.352 331.315 336.352 332.301 335.367 332.695L325.121 338.608C324.333 339.199 322.756 339.396 321.968 338.805Z" fill="#06033E"/>
<path opacity="0.4" d="M337.731 348.068L327.485 342.155C326.697 341.761 326.697 340.776 327.682 340.382L337.929 334.469C338.914 333.877 340.293 333.878 341.081 334.272L351.327 340.185C352.116 340.579 352.116 341.564 351.13 341.958L340.884 347.871C340.096 348.462 338.717 348.462 337.731 348.068Z" fill="#06033E"/>
<path opacity="0.4" d="M353.692 357.135L343.446 351.222C342.658 350.828 342.658 349.842 343.643 349.448L353.889 343.535C354.874 342.944 356.253 342.944 357.042 343.338L367.288 349.251C368.076 349.645 368.076 350.63 367.091 351.025L356.845 356.937C355.859 357.529 354.48 357.529 353.692 357.135Z" fill="#06033E"/>
<path opacity="0.4" d="M369.455 366.201L359.209 360.288C358.421 359.894 358.421 358.908 359.406 358.514L369.652 352.601C370.638 352.01 372.017 352.01 372.805 352.404L383.051 358.317C383.84 358.711 383.84 359.697 382.854 360.091L372.608 366.004C371.82 366.595 370.244 366.792 369.455 366.201Z" fill="#06033E"/>
<path opacity="0.4" d="M385.416 375.464L375.17 369.551C374.381 369.157 374.381 368.172 375.367 367.778L385.613 361.865C386.598 361.274 387.977 361.274 388.766 361.668L399.012 367.581C399.8 367.975 399.8 368.96 398.815 369.354L388.568 375.267C387.583 375.858 386.204 375.858 385.416 375.464Z" fill="#06033E"/>
<path opacity="0.4" d="M401.179 384.531L390.933 378.618C390.145 378.224 390.145 377.238 391.13 376.844L401.376 370.931C402.362 370.34 403.741 370.34 404.529 370.734L414.775 376.647C415.563 377.041 415.563 378.027 414.578 378.421L404.332 384.334C403.347 384.925 401.967 385.122 401.179 384.531Z" fill="#06033E"/>
<path opacity="0.4" d="M416.943 393.794L406.696 387.881C405.908 387.487 405.908 386.502 406.894 386.107L417.14 380.195C418.125 379.603 419.504 379.603 420.292 379.997L430.539 385.91C431.327 386.305 431.327 387.29 430.342 387.684L420.095 393.597C419.307 394.188 417.731 394.188 416.943 393.794Z" fill="#06033E"/>
<path opacity="0.4" d="M432.903 402.86L422.657 396.948C421.869 396.553 421.869 395.568 422.854 395.174L433.1 389.261C434.085 388.67 435.465 388.67 436.253 389.064L446.499 394.977C447.287 395.371 447.287 396.356 446.302 396.75L436.056 402.663C435.071 403.255 433.691 403.255 432.903 402.86Z" fill="#06033E"/>
<path opacity="0.4" d="M448.667 411.927L438.42 406.014C437.632 405.62 437.632 404.634 438.617 404.24L448.864 398.327C449.849 397.736 451.228 397.736 452.016 398.13L462.263 404.043C463.051 404.437 463.051 405.423 462.066 405.817L451.819 411.73C450.834 412.321 449.455 412.518 448.667 411.927Z" fill="#06033E"/>
<path opacity="0.4" d="M231.525 339.987L201.378 322.643C200.59 322.249 200.59 321.263 201.575 320.869L211.821 314.956C212.806 314.365 214.186 314.365 214.974 314.759L245.121 332.104C245.909 332.498 245.909 333.483 244.924 333.877L234.678 339.79C233.693 340.382 232.314 340.382 231.525 339.987Z" fill="#06033E"/>
<path opacity="0.4" d="M426.007 452.331L395.859 434.987C395.071 434.593 395.071 433.607 396.056 433.213L406.302 427.3C407.288 426.709 408.667 426.709 409.455 427.103L439.603 444.447C440.391 444.841 440.391 445.827 439.406 446.221L429.159 452.134C428.174 452.725 426.795 452.725 426.007 452.331Z" fill="#06033E"/>
<path opacity="0.4" d="M362.756 435.972L352.51 430.059C351.721 429.665 351.721 428.68 352.707 428.286L364.726 421.387C365.712 420.796 367.091 420.796 367.879 421.19L378.125 427.103C378.913 427.497 378.913 428.483 377.928 428.877L365.909 435.775C364.923 436.366 363.544 436.366 362.756 435.972Z" fill="#06033E"/>
<path opacity="0.4" d="M247.683 369.551L231.328 360.091C230.54 359.697 230.54 358.711 231.525 358.317L243.545 351.419C244.53 350.828 245.909 350.828 246.698 351.222L263.052 360.682C263.84 361.076 263.84 362.062 262.855 362.456L250.836 369.354C250.047 369.946 248.471 369.946 247.683 369.551Z" fill="#06033E"/>
<path opacity="0.4" d="M347.387 427.103L331.032 417.642C330.244 417.248 330.244 416.263 331.229 415.869L343.249 408.97C344.234 408.379 345.613 408.379 346.401 408.773L362.756 418.234C363.544 418.628 363.544 419.613 362.559 420.008L350.539 426.906C349.751 427.497 348.175 427.497 347.387 427.103Z" fill="#06033E"/>
<path opacity="0.4" d="M270.54 382.757L254.185 373.296C253.397 372.902 253.397 371.917 254.382 371.522L266.402 364.624C267.387 364.033 268.766 364.033 269.555 364.427L285.909 373.888C286.697 374.282 286.697 375.267 285.712 375.661L273.693 382.56C272.707 383.151 271.328 383.151 270.54 382.757Z" fill="#06033E"/>
<path opacity="0.4" d="M269.752 364.427L341.081 405.62C341.869 406.211 341.869 406.999 341.081 407.394L328.667 414.489C327.879 415.08 326.303 415.08 325.515 414.489L254.185 373.296L269.752 364.427Z" fill="#06033E"/>
<path opacity="0.4" d="M406.893 452.528L418.322 459.032C418.913 459.426 418.913 460.018 418.125 460.609L413.199 463.565C412.411 463.96 411.228 464.157 410.637 463.762L399.209 457.258C398.618 456.864 398.618 456.273 399.406 455.682L404.332 452.725C405.12 452.134 406.302 452.134 406.893 452.528Z" fill="#06033E"/>
<path opacity="0.4" d="M390.933 443.265L402.362 449.769C402.953 450.163 402.953 450.754 402.165 451.346L397.238 454.302C396.45 454.696 395.268 454.893 394.677 454.499L383.248 447.995C382.657 447.601 382.657 447.009 383.445 446.418L388.372 443.462C389.16 442.87 390.342 442.87 390.933 443.265Z" fill="#06033E"/>
<path opacity="0.4" d="M375.17 434.198L386.598 440.702C387.189 441.097 387.189 441.688 386.401 442.279L381.475 445.236C380.687 445.63 379.505 445.827 378.913 445.433L367.485 438.929C366.894 438.534 366.894 437.943 367.682 437.352L372.608 434.395C373.199 433.804 374.381 433.804 375.17 434.198Z" fill="#06033E"/>
<path opacity="0.4" d="M399.603 438.14L411.031 444.644C411.623 445.039 411.623 445.63 410.834 446.221L405.908 449.178C405.12 449.572 403.938 449.769 403.347 449.375L391.918 442.871C391.327 442.476 391.327 441.885 392.115 441.294L397.041 438.337C397.83 437.943 399.012 437.746 399.603 438.14Z" fill="#06033E"/>
</g>
<path d="M567.286 419.81L264.826 245.185C260.097 242.426 257.535 235.725 259.308 230.206L327.682 7.88375C329.456 2.36512 334.579 0.197083 339.308 2.9564L641.769 177.582C646.498 180.341 649.059 187.042 647.286 192.561L578.912 414.686C577.139 420.205 572.015 422.57 567.286 419.81Z" fill="url(#paint4_radial)"/>
<path d="M564.331 411.927L270.934 242.426C266.402 239.864 264.037 233.359 265.614 228.038L331.032 15.7675C332.608 10.446 337.731 8.27797 342.263 11.0373L635.66 180.538C640.192 183.1 642.557 189.605 640.98 194.926L575.562 407.196C573.986 412.518 568.863 414.489 564.331 411.927Z" fill="url(#paint5_linear)"/>
<path opacity="0.4" d="M564.331 411.927L270.934 242.426C266.402 239.864 264.037 233.359 265.614 228.038L331.032 15.7675C332.608 10.446 337.731 8.27797 342.263 11.0373L635.66 180.538C640.192 183.1 642.557 189.605 640.98 194.926L575.562 407.196C573.986 412.518 568.863 414.489 564.331 411.927Z" fill="#06033E"/>
<path opacity="0.4" d="M564.331 411.927L270.934 242.426C266.402 239.864 264.037 233.359 265.614 228.038L331.032 15.7675C332.608 10.446 337.731 8.27797 342.263 11.0373L635.66 180.538C640.192 183.1 642.557 189.605 640.98 194.926L575.562 407.196C573.986 412.518 568.863 414.489 564.331 411.927Z" fill="#06033E"/>
<path opacity="0.5" d="M548.567 339.199L349.948 224.49C346.795 222.716 345.219 218.38 346.401 214.636L391.327 68.7859C392.509 65.2382 395.859 63.6614 399.012 65.4353L597.631 180.144C600.784 181.918 602.36 186.254 601.178 189.999L556.252 335.848C555.267 339.593 551.72 340.973 548.567 339.199Z" fill="#06033E"/>
<path d="M521.769 350.63L323.15 235.922C319.998 234.148 318.421 229.812 319.604 226.067L364.529 80.2173C365.712 76.6696 369.061 75.0929 372.214 76.8667L570.833 191.575C573.986 193.349 575.562 197.685 574.38 201.43L529.454 347.28C528.272 350.828 524.922 352.404 521.769 350.63Z" fill="url(#paint6_radial)"/>
<path d="M570.833 191.575L372.214 76.8667C370.243 75.6841 368.273 75.8812 366.697 77.0638C367.682 77.0638 368.667 77.2609 369.652 77.8522L568.272 192.561C571.424 194.335 573.001 198.671 571.818 202.416L526.893 348.265C526.498 349.645 525.71 350.63 524.725 351.419C526.893 351.419 528.666 349.842 529.454 347.477L574.38 201.627C575.562 197.883 573.789 193.349 570.833 191.575Z" fill="white"/>
<path opacity="0.4" d="M271.328 469.675C268.569 469.675 266.008 469.084 264.037 467.901L184.432 421.979C182.265 420.796 181.082 419.022 181.082 417.051C181.082 414.883 182.659 412.518 185.417 410.941L226.402 387.29C231.328 384.334 238.816 384.136 243.151 386.699L322.756 432.622C324.924 433.804 326.106 435.578 326.106 437.549C326.106 439.717 324.53 442.082 321.771 443.659L280.786 467.31C278.027 468.887 274.481 469.675 271.328 469.675ZM265.023 465.931C268.569 468.099 275.269 467.704 279.407 465.339L320.392 441.688C322.362 440.505 323.544 438.929 323.544 437.549C323.544 436.169 322.362 435.184 321.377 434.593L241.772 388.67C238.225 386.502 231.525 386.896 227.387 389.261L186.403 412.912C184.432 414.095 183.25 415.672 183.25 417.051C183.25 418.431 184.432 419.416 185.417 420.008L265.023 465.931Z" fill="#06033E"/>
<path d="M497.927 186.648L489.454 181.721C488.666 181.327 488.272 180.144 488.469 179.356C488.666 178.567 489.651 178.173 490.44 178.567L498.912 183.495C499.701 183.889 500.095 185.071 499.898 185.86C499.701 186.845 498.715 187.239 497.927 186.648Z" fill="white"/>
<path d="M396.45 128.308L373.396 114.906C372.608 114.512 372.214 113.329 372.411 112.541C372.608 111.752 373.593 111.358 374.381 111.752L397.435 125.155C398.224 125.549 398.618 126.731 398.421 127.52C398.027 128.308 397.238 128.702 396.45 128.308Z" fill="white"/>
<path d="M514.085 195.912L505.612 190.984C504.824 190.59 504.43 189.407 504.627 188.619C504.824 187.831 505.809 187.437 506.597 187.831L515.07 192.758C515.858 193.152 516.252 194.335 516.055 195.123C515.661 196.109 514.873 196.503 514.085 195.912Z" fill="white"/>
<path d="M530.045 205.175L521.572 200.248C520.784 199.853 520.39 198.671 520.587 197.882C520.784 197.094 521.769 196.7 522.558 197.094L531.031 202.021C531.819 202.416 532.213 203.598 532.016 204.387C531.622 205.372 530.833 205.766 530.045 205.175Z" fill="white"/>
<path d="M537.927 209.708L537.73 209.511C536.942 209.117 536.548 207.934 536.745 207.146C536.942 206.358 537.927 205.963 538.715 206.358L538.912 206.555C539.7 206.949 540.095 208.131 539.897 208.92C539.503 209.905 538.715 210.299 537.927 209.708Z" fill="#F8359E"/>
<defs>
<linearGradient id="paint0_linear" x1="0" y1="445.405" x2="613.31" y2="445.405" gradientUnits="userSpaceOnUse">
<stop stop-color="#E39A65"/>
<stop offset="1" stop-color="#E95F8D"/>
</linearGradient>
<radialGradient id="paint1_radial" cx="0" cy="0" r="1" gradientUnits="userSpaceOnUse" gradientTransform="translate(338.838 -9.79362) scale(469.463 469.585)">
<stop stop-color="#E39A65"/>
<stop offset="0.4742" stop-color="#A92FFB"/>
<stop offset="0.5947" stop-color="#891CFB"/>
<stop offset="0.7421" stop-color="#6507FA"/>
<stop offset="0.8016" stop-color="#0D0C6F"/>
</radialGradient>
<radialGradient id="paint2_radial" cx="0" cy="0" r="1" gradientUnits="userSpaceOnUse" gradientTransform="translate(51.7041 367.317) scale(513.354 513.487)">
<stop stop-color="#E39A65"/>
<stop offset="0.4742" stop-color="#A92FFB"/>
<stop offset="0.5679" stop-color="#891CFB"/>
<stop offset="0.6825" stop-color="#6507FA"/>
<stop offset="0.7381" stop-color="#0D0C6F"/>
</radialGradient>
<radialGradient id="paint3_radial" cx="0" cy="0" r="1" gradientUnits="userSpaceOnUse" gradientTransform="translate(98.9189 264.252) scale(460.347 460.466)">
<stop stop-color="#E39A65"/>
<stop offset="0.4742" stop-color="#A92FFB"/>
<stop offset="0.5875" stop-color="#891CFB"/>
<stop offset="0.7262" stop-color="#6507FA"/>
<stop offset="1" stop-color="#3919BB"/>
</radialGradient>
<radialGradient id="paint4_radial" cx="0" cy="0" r="1" gradientUnits="userSpaceOnUse" gradientTransform="translate(213.601 88.1574) scale(469.557 469.679)">
<stop stop-color="#E39A65"/>
<stop offset="0.4742" stop-color="#A92FFB"/>
<stop offset="0.5875" stop-color="#891CFB"/>
<stop offset="0.7262" stop-color="#6507FA"/>
<stop offset="1" stop-color="#3919BB"/>
</radialGradient>
<linearGradient id="paint5_linear" x1="265.21" y1="211.449" x2="641.473" y2="211.449" gradientUnits="userSpaceOnUse">
<stop stop-color="#3919BB"/>
<stop offset="1" stop-color="#6507FA"/>
</linearGradient>
<radialGradient id="paint6_radial" cx="0" cy="0" r="1" gradientUnits="userSpaceOnUse" gradientTransform="translate(42.1863 -12.1402) scale(731.323 731.513)">
<stop stop-color="#E39A65"/>
<stop offset="0.4742" stop-color="#A92FFB"/>
<stop offset="0.5875" stop-color="#891CFB"/>
<stop offset="0.7262" stop-color="#6507FA"/>
<stop offset="1" stop-color="#3919BB"/>
</radialGradient>
</defs>
</svg>
